PathFileType	4	(X/Y/Z)	C:/Users/beibeiliu/ov580/test_trc/User1\sequence.29_training_dense_left.trc
DataRate	CameraRate	NumFrames	NumMarkers	Units	OrigDataRate	OrigDataStartFrame	OrigNumFrames
120	120	15	19	mm	120	172	228
Frame#	Time	ThumbCMC			ThumbMCP			ThumbIP			ThumbTip			IndexMCP			IndexPIP			IndexTip			MiddleMCP			MiddlePIP			MiddleTip			RingMCP			RingPIP			RingTip			PinkyMCP			PinkyPIP			PinkyTip			BackHand1			BackHand2			BackHand3	
		X0	Y0	Z0	X1	Y1	Z1	X2	Y2	Z2	X3	Y3	Z3	X4	Y4	Z4	X5	Y5	Z5	X6	Y6	Z6	X7	Y7	Z7	X8	Y8	Z8	X9	Y9	Z9	X10	Y10	Z10	X11	Y11	Z11	X12	Y12	Z12	X13	Y13	Z13	X14	Y14	Z14	X15	Y15	Z15	X16	Y16	Z16	X17	Y17	Z17	X18	Y18	Z18	
171	1.425	-91.0222	-32.851	48.1756	-86.1281	-47.6149	16.4186	-82.1094	-47.0259	-12.6208	-78.0846	-53.7608	-31.9816	-77.5204	-5.35217	-33.4295	-79.2779	-13.6407	-57.0492	-82.018	-27.903	-82.4336	-105.598	22.5897	-36.657	-100.129	24.8591	-59.0017	-97.6377	34.9452	-88.7201	-129.07	26.044	-28.9586	-127.953	36.5403	-49.4331	-124.62	50.3271	-74.0289	-159.128	15.6584	-12.6295	-162.444	28.5216	-28.7614	-163.258	45.2603	-40.5812	-139.5	16.1789	20.6312	-144.259	12.8228	59.038	-104.522	5.71803	44.8782	
172	1.43333	-91.9874	-33.1729	47.3614	-83.1477	-50.7536	16.3649	-81.0592	-47.6804	-13.1431	-76.022	-57.422	-34.8394	-77.6428	-4.46652	-28.9429	-77.9539	-13.7076	-56.725	-79.133	-28.8452	-78.6761	-106.789	21.7325	-35.0378	-98.1976	25.2895	-61.3117	-96.6999	35.1377	-91.719	-126.72	27.9855	-32.0401	-125.054	38.9363	-53.5901	-125.434	49.4699	-74.012	-161.034	17.3193	-13.7715	-163.242	30.3826	-30.8482	-165.76	51.6222	-42.0761	-134.341	15.8868	21.7174	-144.24	14.0899	55.2087	-109.039	7.69583	44.6164	
173	1.44167	-94.0735	-31.0998	45.2965	-86.6709	-47.124	13.4673	-78.8381	-50.5094	-15.6457	-78.5838	-55.8658	-35.659	-79.4476	-3.83956	-30.5706	-76.5642	-16.4585	-60.4346	-83.9035	-28.1302	-81.2797	-105.304	22.1005	-36.2572	-97.9074	26.9141	-64.4462	-93.9198	34.8436	-92.5879	-127.058	26.1488	-29.3961	-127.356	39.62	-52.0498	-118.81	50.1332	-74.1909	-157.603	19.8575	-15.9462	-161.283	31.074	-32.2486	-165.046	51.6534	-42.8546	-133.427	17.0669	24.3853	-141.906	12.935	52.3991	-102.947	7.75996	42.0387	
174	1.45	-93.7838	-31.8171	44.1342	-86.5456	-46.3862	13.4311	-78.0841	-51.8569	-15.3531	-79.7472	-54.6573	-36.0625	-75.8978	-5.21793	-28.9588	-78.8215	-16.1807	-59.7174	-82.3291	-31.6905	-83.3157	-103.914	22.1366	-37.4415	-98.421	26.5664	-66.1201	-96.0925	33.5725	-89.1451	-129.487	28.8333	-32.0534	-121.115	39.0523	-54.5509	-119.478	50.5971	-75.1959	-157.853	20.4103	-16.3505	-158.21	31.2656	-31.4418	-161.687	51.2264	-44.4248	-136.456	19.4881	20.6791	-143.473	14.6832	53.2735	-104.688	7.26155	42.8945	
175	1.45833	-94.7778	-33.0084	47.2049	-83.6229	-50.0617	13.8741	-80.8111	-51.9715	-13.4847	-75.3046	-61.7451	-35.3481	-79.1677	-4.59348	-31.999	-74.3568	-15.8899	-55.8643	-79.1143	-32.0301	-81.2296	-103.192	22.9539	-38.7055	-98.9336	26.2775	-61.9242	-93.0206	34.2699	-92.2369	-126.822	27.9909	-31.9603	-119.335	38.8294	-55.0578	-117.322	48.7772	-73.1747	-157.669	22.3224	-17.3748	-158.301	31.8145	-31.6199	-157.764	52.855	-43.784	-135.486	15.9986	24.6061	-141.028	13.426	53.0563	-105.122	6.57327	43.572	
176	1.46667	-93.1666	-33.2184	42.9579	-84.3873	-51.4892	14.1325	-79.5309	-55.1232	-12.007	-74.4308	-63.1264	-33.2596	-78.5867	-5.00032	-31.842	-77.9273	-17.0976	-61.2301	-80.6455	-31.0276	-81.2171	-102.185	22.2782	-38.8233	-95.4945	24.6119	-61.7684	-89.4962	34.4677	-91.9966	-126.955	27.7609	-32.1863	-122.748	39.6832	-53.4928	-114.648	51.4742	-76.489	-152.117	21.4711	-18.3533	-159.037	34.8624	-34.1438	-157.143	53.4877	-44.3621	-136.308	17.4643	22.6386	-142.399	14.4961	52.5691	-102.994	7.29505	40.5332	
177	1.475	-90.8332	-35.9409	45.6543	-84.0484	-53.7339	15.0767	-78.8601	-57.3205	-8.80181	-73.3052	-63.7544	-33.7851	-74.2614	-7.58842	-34.1338	-75.6151	-16.3483	-59.9393	-78.6797	-33.495	-84.4205	-101.283	20.2268	-35.9271	-94.8385	25.9541	-65.4651	-91.647	32.9958	-90.3366	-121.714	27.2688	-32.5266	-120.704	38.2551	-52.8636	-113.562	51.4272	-76.5407	-155.433	19.8237	-14.9932	-157.585	33.1141	-31.719	-156.007	54.68	-45.2013	-134.36	18.7474	19.1739	-144.63	13.8053	54.4456	-105.122	7.024	42.5615	
178	1.48333	-90.892	-38.4658	45.3088	-87.0779	-52.4594	15.4365	-75.5435	-61.745	-10.7345	-71.5173	-71.2117	-30.0747	-74.8515	-9.3141	-30.491	-75.475	-15.0413	-60.169	-75.9533	-31.0189	-87.0278	-95.221	19.3225	-39.3306	-91.1118	23.9716	-65.3536	-87.9963	32.5888	-90.3949	-120.588	25.9913	-30.589	-120.229	39.8224	-54.6828	-110.987	49.3293	-74.6878	-153.808	22.7727	-17.44	-153.009	31.469	-30.9265	-150.356	53.0505	-45	-134.679	17.2808	19.8333	-137.372	14.2306	52.4663	-101.327	4.17943	42.5043	
179	1.49167	-92.3694	-41.1912	46.7372	-86.4791	-58.8391	20.249	-78.9653	-64.1741	-9.33347	-74.8706	-73.9596	-27.0366	-74.271	-10.0799	-35.4564	-70.6063	-15.8498	-57.469	-78.4263	-23.7479	-85.0759	-94.9102	16.7736	-36.4572	-91.081	22.0428	-61.1419	-88.857	32.2841	-88.3227	-123.605	26.2005	-30.5212	-115.946	36.4891	-52.0866	-109.871	49.4786	-74.8827	-152.14	23.7153	-17.8969	-150.876	34.9124	-32.7539	-149.616	53.4535	-43.8655	-132.478	15.9629	22.2939	-136.233	11.1298	54.6665	-102.246	1.61708	42.9955	
180	1.5	-92.5094	-41.2813	44.9834	-86.2117	-61.5027	20.7251	-76.3703	-68.9984	-10.9292	-73.7862	-77.6689	-30.7148	-77.6084	-9.01229	-31.6905	-73.9815	-14.7956	-61.9498	-73.4018	-23.5421	-86.7814	-93.3529	16.2557	-39.7622	-88.7165	23.3777	-64.3937	-85.7236	33.7441	-88.7478	-120.278	28.1153	-33.3952	-112.654	35.2524	-50.4421	-108.607	49.1444	-73.9936	-146.961	22.8102	-18.4077	-149.19	34.3107	-30.5061	-147.227	53.508	-40.9223	-125.755	14.9871	20.7565	-134.43	15.9441	51.108	-103.7	-0.0174629	40.6848	
181	1.50833	-93.569	-41.3691	43.922	-83.8838	-64.4541	17.6375	-77.7416	-72.8885	-5.73849	-73.521	-82.8957	-27.2287	-74.1511	-12.1848	-35.6264	-73.9325	-15.616	-58.5059	-72.0186	-24.4061	-88.8677	-95.193	15.7984	-37.5047	-87.9496	20.1446	-60.3233	-85.2917	35.2139	-88.8408	-121.358	25.0788	-28.8613	-111.704	37.8636	-54.0792	-107.703	46.9176	-72.2963	-150.573	22.0346	-13.9106	-146.005	35.0974	-31.6989	-145.286	55.9033	-39.8511	-125.416	14.6993	21.2932	-135.236	13.2907	54.559	-101.173	1.03352	36.878	
182	1.51667	-95.1092	-43.249	47.385	-86.3944	-66.0866	19.1923	-79.5003	-75.968	-7.14808	-76.3552	-87.3158	-23.2147	-75.1143	-14.3781	-32.4473	-72.8988	-18.0969	-58.1896	-73.424	-23.9735	-88.484	-92.9359	13.7634	-37.4048	-87.7175	22.213	-64.3845	-85.0331	31.7045	-84.7225	-114.097	23.2253	-32.1115	-110.098	36.315	-53.0214	-105.732	50.7684	-74.2433	-146.313	23.9182	-15.5019	-149.287	35.6921	-26.1676	-143.338	56.7281	-39.7159	-127.081	14.2672	21.3628	-131.706	13.3127	55.5896	-99.7601	-1.94828	39.7648	
183	1.525	-95.0211	-43.6258	46.1659	-88.287	-68.9329	20.6088	-81.9538	-78.6326	-4.34597	-81.2923	-86.9239	-25.475	-76.6821	-16.1753	-35.0052	-70.9624	-23.3892	-63.2757	-73.3467	-27.6968	-86.326	-94.7563	12.2393	-35.3229	-86.2345	20.0169	-64.103	-81.0707	31.1385	-87.2894	-115.174	22.4211	-29.9312	-110.12	36.8215	-52.4375	-102.879	46.0924	-71.3053	-144.952	23.4077	-12.3172	-142.063	35.9563	-28.3507	-135.732	54.8241	-34.8861	-122.24	11.7721	23.9895	-130.621	16.0261	54.8189	-98.7352	-3.34297	41.4936	
184	1.53333	-92.7878	-46.7776	44.5289	-90.3288	-71.1418	21.8012	-86.5542	-79.6806	-3.70425	-84.1009	-91.5073	-19.8285	-77.5414	-20.0544	-33.3816	-75.0739	-25.3221	-59.0261	-79.4776	-28.1465	-86.1103	-93.0099	10.4267	-40.0074	-83.9584	13.735	-60.2215	-78.4045	25.5655	-84.8844	-113.488	23.4954	-31.7845	-106.032	32.5848	-51.1514	-99.4323	46.5791	-71.9432	-141.017	24.6509	-13.6187	-137.856	36.5466	-27.0631	-134.886	55.6721	-34.3754	-120.498	13.1905	22.2849	-126.864	12.316	55.2069	-95.33	-5.36296	38.6327	
185	1.54167	-94.5387	-49.2016	46.641	-92.4706	-71.7722	21.6119	-87.1073	-82.2709	-4.2859	-86.7066	-92.7678	-22.2515	-77.0343	-23.3624	-35.5109	-77.464	-26.7257	-59.5672	-83.0388	-30.9988	-85.9898	-87.6712	5.85985	-37.3569	-85.3243	12.1619	-60.61	-78.8019	23.034	-85.0793	-111.576	18.7119	-27.6302	-102.711	28.474	-48.3808	-96.8101	41.1369	-71.061	-136.788	20.4407	-10.6182	-136.825	38.2766	-26.3756	-128.616	53.5456	-34.5814	-117.008	12.2229	23.0471	-121.292	11.86	53.096	-92.7092	-8.21487	39.0343	
